<svg width="274" height="136" viewBox="0 0 274 136" fill="none" xmlns="http://www.w3.org/2000/svg">
<g clip-path="url(#clip0_912_74)">
<path d="M16.3151 68.056C17.5844 66.8773 20.1231 64.4747 23.9311 60.848C30.5497 54.5013 35.4457 49.2427 38.6191 45.072C42.3364 40.0853 44.1951 37.0933 44.1951 36.096C44.1951 35.7333 43.4697 35.6427 42.0191 35.824C38.1204 36.368 34.1311 37.5467 30.0511 39.36C25.9711 41.1733 22.6617 43.2133 20.1231 45.48L19.4431 49.288C17.3577 59.5333 16.3151 65.608 16.3151 67.512V68.056ZM13.8671 113.48C18.6724 107.859 24.4751 99.7893 31.2751 89.272C38.0751 78.8453 42.2911 71.4107 43.9231 66.968C44.8297 64.4293 44.9204 62.616 44.1951 61.528C43.8324 60.984 43.3791 60.6213 42.8351 60.44C42.3817 60.2587 41.4297 60.168 39.9791 60.168C38.2564 60.168 36.7151 60.3493 35.3551 60.712C30.2777 61.8907 25.6084 64.0667 21.3471 67.24C20.4404 67.8747 19.3071 68.872 17.9471 70.232C16.5871 71.5013 15.8617 72.2267 15.7711 72.408C15.4991 73.0427 15.0911 76.9413 14.5471 84.104C14.0031 90.9947 13.6857 98.3387 13.5951 106.136C13.5951 111.032 13.6857 113.48 13.8671 113.48ZM4.75506 117.424C4.84573 117.424 4.98173 117.968 5.16306 119.056C5.43506 120.235 5.57106 120.824 5.57106 120.824C5.84306 120.824 7.5204 119.509 10.6031 116.88L10.7391 107.904C10.8297 98.4747 11.2831 88.9093 12.0991 79.208C12.3711 76.488 12.4617 75.128 12.3711 75.128C12.3711 75.0373 12.0084 75.264 11.2831 75.808C9.46973 77.5307 8.24573 77.9387 7.61106 77.032C7.33906 76.5787 7.3844 76.1253 7.74706 75.672C8.10973 75.2187 9.0164 74.3573 10.4671 73.088L13.0511 70.776L13.3231 68.328C13.5044 66.8773 14.5924 60.3493 16.5871 48.744C15.3177 49.56 13.2777 51.6907 10.4671 55.136C7.74706 58.5813 6.7044 60.9387 7.33906 62.208C7.5204 62.48 7.56573 62.752 7.47506 63.024C7.3844 63.2053 7.15773 63.296 6.79506 63.296C5.97906 63.2053 5.6164 62.48 5.70706 61.12C5.8884 58.4907 9.1524 53.776 15.4991 46.976L17.5391 44.8L18.0831 42.216C18.8991 38.2267 19.1257 36.0507 18.7631 35.688C18.1284 35.0533 15.6804 36.0053 11.4191 38.544C9.6964 39.5413 8.24573 40.584 7.06706 41.672C5.8884 42.76 5.29906 43.576 5.29906 44.12C5.29906 44.664 5.11773 44.8453 4.75506 44.664C4.48306 44.5733 4.34706 44.392 4.34706 44.12C4.34706 42.9413 6.0244 41.0827 9.37906 38.544C12.8244 36.0053 15.5897 34.5093 17.6751 34.056C19.3071 33.784 20.3497 34.328 20.8031 35.688C21.2564 36.9573 21.3017 38.6347 20.9391 40.72C20.8484 41.6267 20.8031 42.08 20.8031 42.08C20.8031 42.08 21.4377 41.672 22.7071 40.856C25.5177 39.0427 28.7817 37.5013 32.4991 36.232C36.3071 34.872 39.6617 34.1467 42.5631 34.056C44.7391 33.8747 46.0084 34.2827 46.3711 35.28C47.0057 36.4587 46.0537 38.9067 43.5151 42.624C40.0697 47.7013 36.1257 52.552 31.6831 57.176L28.8271 60.168C32.9071 58.536 36.4884 57.72 39.5711 57.72C47.0057 57.72 48.8644 62.0267 45.1471 70.64C43.0617 75.6267 38.7097 83.152 32.0911 93.216C25.4724 103.371 19.9417 110.987 15.4991 116.064C14.3204 117.333 13.6857 118.24 13.5951 118.784C13.5044 119.328 13.3231 119.781 13.0511 120.144C12.7791 120.507 12.4617 120.552 12.0991 120.28C11.9177 120.099 11.2377 120.416 10.0591 121.232C8.3364 122.592 6.9764 123.272 5.97906 123.272C4.61906 123.272 3.93906 122.501 3.93906 120.96C3.93906 120.325 4.02973 119.555 4.21106 118.648C4.48306 117.832 4.6644 117.424 4.75506 117.424ZM51.8366 85.6C52.4712 85.056 53.3779 84.3307 54.5566 83.424C58.0926 80.3413 60.7672 78.528 62.5806 77.984C63.1246 77.8027 63.3966 77.576 63.3966 77.304C63.3966 76.8507 62.8526 76.5787 61.7646 76.488C60.7672 76.3973 60.0419 76.4427 59.5886 76.624C58.4099 77.0773 56.8232 78.3467 54.8286 80.432C52.8339 82.4267 51.4739 84.1493 50.7486 85.6C50.4766 86.144 50.3859 86.416 50.4766 86.416C50.6579 86.416 51.1112 86.144 51.8366 85.6ZM50.0686 88.184C48.4366 88.184 48.2099 87.0053 49.3886 84.648C50.7486 81.8373 53.2419 79.072 56.8686 76.352C58.5006 75.1733 60.0419 74.6747 61.4926 74.856C62.9432 75.0373 63.6686 75.808 63.6686 77.168C63.6686 77.6213 63.8046 77.984 64.0766 78.256C64.3486 78.4373 64.5299 79.3893 64.6206 81.112C64.6206 81.2027 64.6206 81.3387 64.6206 81.52C64.6206 82.4267 64.6206 83.1067 64.6206 83.56C64.7112 84.0133 64.8019 84.512 64.8926 85.056C64.9832 85.6 65.1192 86.008 65.3006 86.28C65.5726 86.552 65.8899 86.6427 66.2526 86.552C67.4312 86.4613 69.4712 85.6 72.3726 83.968C73.5512 83.3333 75.1832 82.5173 77.2686 81.52C79.3539 80.432 80.4419 79.9333 80.5326 80.024C80.5326 80.024 80.3966 80.1147 80.1246 80.296C79.9432 80.4773 79.6712 80.7493 79.3086 81.112C78.9459 81.384 78.5379 81.7013 78.0846 82.064C69.7432 88.4107 64.8019 90.0427 63.2606 86.96C62.9886 86.5973 62.8072 85.7813 62.7166 84.512C62.7166 83.2427 62.7166 82.2 62.7166 81.384C62.8072 80.4773 62.7619 79.9333 62.5806 79.752C62.5806 79.752 61.9912 80.1147 60.8126 80.84C59.0899 81.8373 56.9139 83.5147 54.2846 85.872C53.1966 86.7787 52.3352 87.4133 51.7006 87.776C51.1566 88.048 50.6126 88.184 50.0686 88.184ZM79.6794 80.704C79.6794 77.168 79.8607 73.224 80.2234 68.872H78.1834C76.5514 68.872 75.6447 68.6907 75.4634 68.328C75.3727 67.9653 75.5087 67.6933 75.8714 67.512C76.234 67.3307 77.0047 67.1947 78.1834 67.104C78.3647 67.104 78.6367 67.104 78.9994 67.104C79.8154 67.0133 80.2687 66.9227 80.3594 66.832C80.45 66.7413 80.4954 66.3333 80.4954 65.608C80.4954 64.8827 80.5407 64.248 80.6314 63.704C80.6314 62.4347 80.6314 61.256 80.6314 60.168C80.722 58.9893 80.7674 58.0373 80.7674 57.312C80.7674 56.5867 80.722 56.224 80.6314 56.224C80.45 56.224 80.2234 56.496 79.9514 57.04C79.5887 57.4933 79.3167 57.992 79.1354 58.536L78.7274 59.488C78.7274 59.3973 78.7274 59.1707 78.7274 58.808C78.9087 57.8107 79.2714 56.9493 79.8154 56.224C80.2687 55.4987 80.7674 55.136 81.3114 55.136C81.946 55.2267 82.354 55.816 82.5354 56.904C82.8074 57.9013 82.898 59.8053 82.8074 62.616V66.696C84.0767 66.5147 85.4367 66.3787 86.8874 66.288C88.61 66.1973 89.29 66.3333 88.9274 66.696C88.474 67.24 87.0234 67.7387 84.5754 68.192L82.5354 68.6L82.3994 70.096C81.8554 76.896 81.7647 81.8373 82.1274 84.92L82.8074 83.968C84.4394 82.064 85.2554 81.4747 85.2554 82.2C85.2554 82.472 85.21 82.9253 85.1194 83.56C84.7567 85.464 84.258 87.0507 83.6234 88.32C82.9887 89.4987 82.1727 89.7253 81.1754 89C80.178 88.184 79.6794 85.4187 79.6794 80.704ZM92.1829 87.912C91.6389 87.4587 91.3669 85.8267 91.3669 83.016C91.2762 80.2053 91.3215 77.712 91.5029 75.536C91.6842 73.2693 91.6389 71.9547 91.3669 71.592C91.0949 71.592 90.7322 71.864 90.2789 72.408C89.8255 72.8613 89.6442 73.224 89.7349 73.496C89.7349 73.768 89.7349 73.9493 89.7349 74.04C89.6442 74.04 89.5082 73.9493 89.3269 73.768C88.8735 73.224 89.2362 72.3627 90.4149 71.184C91.9562 69.552 92.9535 69.824 93.4069 72C93.4975 72.272 93.5429 72.544 93.5429 72.816C93.6335 73.5413 93.5882 75.7627 93.4069 79.48C93.3162 83.1973 93.2709 85.1467 93.2709 85.328C93.7242 84.6933 94.9029 82.5627 96.8069 78.936C96.9882 78.4827 97.3055 77.848 97.7589 77.032C98.4842 75.5813 98.9829 74.5387 99.2549 73.904C99.6175 73.2693 100.071 72.4987 100.615 71.592C101.25 70.6853 101.658 70.3227 101.839 70.504C102.02 70.5947 102.383 70.5947 102.927 70.504C103.562 70.9573 103.652 73.4053 103.199 77.848C102.836 81.4747 102.746 83.696 102.927 84.512C103.018 85.2373 102.791 85.6 102.247 85.6C101.703 85.5093 101.295 85.192 101.023 84.648C100.479 83.7413 100.343 81.6107 100.615 78.256C100.796 76.8053 100.842 76.0347 100.751 75.944C100.751 75.944 100.298 76.8053 99.3909 78.528C98.5749 80.16 97.6682 81.928 96.6709 83.832C95.6735 85.736 94.9935 86.8693 94.6309 87.232C93.7242 88.1387 92.9082 88.3653 92.1829 87.912ZM107.159 83.288C107.431 82.1093 107.567 80.2053 107.567 77.576C107.567 74.9467 107.521 72.8613 107.431 71.32C107.34 69.688 107.431 68.5547 107.703 67.92C108.247 67.4667 108.609 67.9653 108.791 69.416C108.881 70.1413 108.972 71.5467 109.063 73.632L109.335 77.984C111.42 74.448 113.641 71.592 115.999 69.416C116.633 68.7813 117.449 68.1467 118.447 67.512C119.444 66.8773 120.079 66.56 120.351 66.56C120.623 66.56 120.804 66.696 120.895 66.968C120.985 67.1493 120.895 67.4213 120.623 67.784C120.441 68.056 119.353 69.2347 117.359 71.32C114.82 74.1307 112.78 77.0773 111.239 80.16C110.06 82.5173 109.471 84.6027 109.471 86.416C109.471 87.504 109.38 88.2293 109.199 88.592C109.017 88.864 108.7 89 108.247 89C106.705 89 106.343 87.096 107.159 83.288ZM164.824 75.944C167 75.5813 170.264 75.3547 174.616 75.264C177.427 75.1733 178.832 75.0373 178.832 74.856C178.832 74.7653 178.877 73.768 178.968 71.864C179.693 61.528 181.008 52.0987 182.912 43.576C183.275 42.1253 183.411 41.3547 183.32 41.264C183.32 41.264 182.821 42.08 181.824 43.712C180.827 45.344 179.648 47.2933 178.288 49.56C176.928 51.736 175.84 53.64 175.024 55.272C171.125 62.072 167.725 68.9627 164.824 75.944ZM179.376 109.264C178.741 101.013 178.469 91.9013 178.56 81.928C178.56 78.8453 178.56 77.2587 178.56 77.168C178.379 77.0773 176.157 77.168 171.896 77.44C167.725 77.712 165.051 77.9387 163.872 78.12L162.512 81.656C162.059 82.9253 160.608 87.0053 158.16 93.896C155.712 100.787 154.171 105.093 153.536 106.816C152.629 109.173 152.131 110.715 152.04 111.44C151.949 112.256 151.768 112.709 151.496 112.8C151.043 112.8 150.771 112.664 150.68 112.392C150.589 112.12 150.68 111.395 150.952 110.216C151.224 109.037 151.632 107.496 152.176 105.592C152.811 103.779 153.763 101.104 155.032 97.568C158.205 88.2293 160.517 81.8373 161.968 78.392C161.968 78.3013 161.877 78.256 161.696 78.256C161.333 78.256 159.112 78.528 155.032 79.072C153.581 79.2533 151.133 79.5707 147.688 80.024C144.243 80.3867 141.885 80.6587 140.616 80.84C140.163 80.9307 139.981 80.9307 140.072 80.84C140.253 80.6587 140.979 80.432 142.248 80.16C143.608 79.888 146.237 79.344 150.136 78.528C154.125 77.712 157.253 77.1227 159.52 76.76C161.605 76.3973 162.693 76.1707 162.784 76.08C162.965 75.8987 163.419 74.992 164.144 73.36C166.592 67.5573 169.811 61.0747 173.8 53.912C175.251 51.2827 177.381 47.5653 180.192 42.76C183.093 37.9547 184.68 35.416 184.952 35.144C185.224 34.872 185.496 34.8267 185.768 35.008C186.04 35.0987 186.267 35.3707 186.448 35.824C186.629 36.7307 186.131 40.7653 184.952 47.928C183.864 54.3653 183.093 59.8053 182.64 64.248C182.005 70.0507 181.688 73.6773 181.688 75.128C181.688 75.3093 182.051 75.4 182.776 75.4C183.592 75.4 186.131 75.672 190.392 76.216C187.581 76.5787 185.224 76.8507 183.32 77.032L181.688 77.168C181.507 77.984 181.416 81.4747 181.416 87.64C181.416 93.8053 181.461 98.0667 181.552 100.424C181.643 101.059 181.869 103.643 182.232 108.176C182.595 112.8 182.821 115.973 182.912 117.696C182.912 119.6 182.731 120.869 182.368 121.504C182.096 122.048 181.915 122.32 181.824 122.32C181.733 122.411 181.507 122.275 181.144 121.912C180.691 121.368 180.373 120.552 180.192 119.464C180.101 118.467 179.829 115.067 179.376 109.264ZM191.469 90.224C191.469 88.7733 191.923 85.1013 192.829 79.208C193.827 72.952 194.552 66.6053 195.005 60.168C195.096 58.1733 195.232 57.176 195.413 57.176C195.595 57.2667 195.731 57.4027 195.821 57.584C196.637 58.8533 196.411 64.4747 195.141 74.448C194.779 77.44 194.597 78.9813 194.597 79.072C198.859 77.2587 201.035 76.3067 201.125 76.216C201.488 76.216 201.669 76.352 201.669 76.624C201.669 76.8053 201.488 77.032 201.125 77.304C200.944 77.4853 200.808 77.5307 200.717 77.44C200.899 77.168 200.808 77.1227 200.445 77.304C200.173 77.4853 199.72 77.8027 199.085 78.256C198.269 78.9813 197.499 79.7067 196.773 80.432C196.048 81.1573 195.731 81.6107 195.821 81.792C196.003 82.064 196.864 82.3813 198.405 82.744C199.947 83.016 201.488 83.2427 203.029 83.424C205.84 83.6053 207.472 83.8773 207.925 84.24C208.288 84.6027 208.016 84.92 207.109 85.192C205.84 85.464 204.117 85.6 201.941 85.6C198.949 85.6 196.683 85.192 195.141 84.376C194.416 84.0133 194.008 83.832 193.917 83.832C193.645 84.1947 193.509 86.3253 193.509 90.224C193.509 92.128 193.192 93.08 192.557 93.08C192.376 93.08 192.104 92.944 191.741 92.672C191.56 92.4 191.469 91.584 191.469 90.224ZM210.196 90.224C210.196 88.7733 210.649 85.1013 211.556 79.208C212.553 72.952 213.278 66.6053 213.732 60.168C213.822 58.1733 213.958 57.176 214.14 57.176C214.321 57.2667 214.457 57.4027 214.548 57.584C215.364 58.8533 215.137 64.4747 213.868 74.448C213.505 77.44 213.324 78.9813 213.324 79.072C217.585 77.2587 219.761 76.3067 219.852 76.216C220.214 76.216 220.396 76.352 220.396 76.624C220.396 76.8053 220.214 77.032 219.852 77.304C219.67 77.4853 219.534 77.5307 219.444 77.44C219.625 77.168 219.534 77.1227 219.172 77.304C218.9 77.4853 218.446 77.8027 217.812 78.256C216.996 78.9813 216.225 79.7067 215.5 80.432C214.774 81.1573 214.457 81.6107 214.548 81.792C214.729 82.064 215.59 82.3813 217.132 82.744C218.673 83.016 220.214 83.2427 221.756 83.424C224.566 83.6053 226.198 83.8773 226.652 84.24C227.014 84.6027 226.742 84.92 225.836 85.192C224.566 85.464 222.844 85.6 220.668 85.6C217.676 85.6 215.409 85.192 213.868 84.376C213.142 84.0133 212.734 83.832 212.644 83.832C212.372 84.1947 212.236 86.3253 212.236 90.224C212.236 92.128 211.918 93.08 211.284 93.08C211.102 93.08 210.83 92.944 210.468 92.672C210.286 92.4 210.196 91.584 210.196 90.224ZM231.37 87.912C230.826 87.4587 230.554 85.8267 230.554 83.016C230.464 80.2053 230.509 77.712 230.69 75.536C230.872 73.2693 230.826 71.9547 230.554 71.592C230.282 71.592 229.92 71.864 229.466 72.408C229.013 72.8613 228.832 73.224 228.922 73.496C228.922 73.768 228.922 73.9493 228.922 74.04C228.832 74.04 228.696 73.9493 228.514 73.768C228.061 73.224 228.424 72.3627 229.602 71.184C231.144 69.552 232.141 69.824 232.594 72C232.685 72.272 232.73 72.544 232.73 72.816C232.821 73.5413 232.776 75.7627 232.594 79.48C232.504 83.1973 232.458 85.1467 232.458 85.328C232.912 84.6933 234.09 82.5627 235.994 78.936C236.176 78.4827 236.493 77.848 236.946 77.032C237.672 75.5813 238.17 74.5387 238.442 73.904C238.805 73.2693 239.258 72.4987 239.802 71.592C240.437 70.6853 240.845 70.3227 241.026 70.504C241.208 70.5947 241.57 70.5947 242.114 70.504C242.749 70.9573 242.84 73.4053 242.386 77.848C242.024 81.4747 241.933 83.696 242.114 84.512C242.205 85.2373 241.978 85.6 241.434 85.6C240.89 85.5093 240.482 85.192 240.21 84.648C239.666 83.7413 239.53 81.6107 239.802 78.256C239.984 76.8053 240.029 76.0347 239.938 75.944C239.938 75.944 239.485 76.8053 238.578 78.528C237.762 80.16 236.856 81.928 235.858 83.832C234.861 85.736 234.181 86.8693 233.818 87.232C232.912 88.1387 232.096 88.3653 231.37 87.912ZM246.346 83.288C246.618 82.1093 246.754 80.2053 246.754 77.576C246.754 74.9467 246.709 72.8613 246.618 71.32C246.528 69.688 246.618 68.5547 246.89 67.92C247.434 67.4667 247.797 67.9653 247.978 69.416C248.069 70.1413 248.16 71.5467 248.25 73.632L248.522 77.984C250.608 74.448 252.829 71.592 255.186 69.416C255.821 68.7813 256.637 68.1467 257.634 67.512C258.632 66.8773 259.266 66.56 259.538 66.56C259.81 66.56 259.992 66.696 260.082 66.968C260.173 67.1493 260.082 67.4213 259.81 67.784C259.629 68.056 258.541 69.2347 256.546 71.32C254.008 74.1307 251.968 77.0773 250.426 80.16C249.248 82.5173 248.658 84.6027 248.658 86.416C248.658 87.504 248.568 88.2293 248.386 88.592C248.205 88.864 247.888 89 247.434 89C245.893 89 245.53 87.096 246.346 83.288ZM261.632 80.704C261.632 77.168 261.814 73.224 262.176 68.872H260.136C258.504 68.872 257.598 68.6907 257.416 68.328C257.326 67.9653 257.462 67.6933 257.825 67.512C258.187 67.3307 258.958 67.1947 260.136 67.104C260.318 67.104 260.59 67.104 260.952 67.104C261.768 67.0133 262.222 66.9227 262.312 66.832C262.403 66.7413 262.449 66.3333 262.449 65.608C262.449 64.8827 262.494 64.248 262.585 63.704C262.585 62.4347 262.585 61.256 262.585 60.168C262.675 58.9893 262.721 58.0373 262.721 57.312C262.721 56.5867 262.675 56.224 262.585 56.224C262.403 56.224 262.176 56.496 261.904 57.04C261.542 57.4933 261.27 57.992 261.088 58.536L260.68 59.488C260.68 59.3973 260.68 59.1707 260.68 58.808C260.862 57.8107 261.224 56.9493 261.768 56.224C262.222 55.4987 262.721 55.136 263.265 55.136C263.899 55.2267 264.307 55.816 264.489 56.904C264.761 57.9013 264.851 59.8053 264.761 62.616V66.696C266.03 66.5147 267.39 66.3787 268.841 66.288C270.563 66.1973 271.243 66.3333 270.881 66.696C270.427 67.24 268.977 67.7387 266.529 68.192L264.489 68.6L264.353 70.096C263.809 76.896 263.718 81.8373 264.081 84.92L264.761 83.968C266.393 82.064 267.209 81.4747 267.209 82.2C267.209 82.472 267.163 82.9253 267.073 83.56C266.71 85.464 266.211 87.0507 265.577 88.32C264.942 89.4987 264.126 89.7253 263.129 89C262.131 88.184 261.632 85.4187 261.632 80.704Z" fill="#E4111F"/>
</g>
<defs>
<clipPath id="clip0_912_74">
<rect width="274" height="136" fill="white"/>
</clipPath>
</defs>
</svg>
